<svg xmlns="http://www.w3.org/2000/svg" xmlns:xlink="http://www.w3.org/1999/xlink" width="469.101" height="488.5" viewBox="0 0 469.101 488.5"><defs><style>.a{fill:#eaedf7;}.b{fill:#3350ad;}.c{filter:url(#c);}.d{filter:url(#a);}</style><filter id="a" x="0" y="0" width="469.101" height="488.5" filterUnits="userSpaceOnUse"><feOffset input="SourceAlpha"/><feGaussianBlur stdDeviation="1" result="b"/><feFlood flood-opacity="0.149"/><feComposite operator="in" in2="b"/><feComposite in="SourceGraphic"/></filter><filter id="c" x="87.406" y="61.037" width="328.666" height="384.367" filterUnits="userSpaceOnUse"><feOffset input="SourceAlpha"/><feGaussianBlur stdDeviation="1" result="d"/><feFlood flood-opacity="0.149"/><feComposite operator="in" in2="d"/><feComposite in="SourceGraphic"/></filter></defs><g transform="translate(-69.415 340.855) rotate(-59)"><g class="d" transform="matrix(0.52, 0.86, -0.86, 0.52, 327.92, -116.05)"><path class="a" d="M82.017,370.015a117.857,117.857,0,0,1-28.078-40.5C45.06,308.46,41.29,285.631,38.708,262.93c-8.343-73.384,14.4-158.016,93.255-180.586,52.9-15.14,110.257.362,158.655,22.8,71.113,32.965,171.33,135.583,87.564,211.87-45.033,41.011-117.775,25.537-171.012,47.873-24.941,10.464-48.422,29.74-76.868,27.445C111.75,390.831,95.342,382.292,82.017,370.015Z" transform="translate(-81.51 315.13) rotate(-59)"/></g><g class="c" transform="matrix(0.52, 0.86, -0.86, 0.52, 327.92, -116.05)"><path class="b" d="M44.932,293.7a117.857,117.857,0,0,1-28.078-40.5C7.975,232.148,4.205,209.32,1.624,186.618-6.72,113.234,16.019,28.6,94.878,6.032c52.9-15.14,110.257.362,158.655,22.8C324.646,61.8,424.863,164.414,341.1,240.7c-45.033,41.011-117.776,25.537-171.012,47.873-24.941,10.464-48.422,29.74-76.868,27.445C74.665,314.519,58.257,305.98,44.932,293.7Z" transform="translate(90.41 436.89) rotate(-89)"/></g></g></svg>