<svg xmlns="http://www.w3.org/2000/svg" width="36" height="36" viewBox="0 0 36 36"><defs><style>.a,.d{fill:none;}.a{stroke:silver;stroke-width:2px;}.b{fill:silver;}.c{stroke:none;}</style></defs><g transform="translate(-1417 -4816)"><g class="a" transform="translate(1417 4816)"><circle class="c" cx="18" cy="18" r="18"/><circle class="d" cx="18" cy="18" r="17"/></g><path class="b" d="M76.958,8.435h1.736v7.147a.255.255,0,0,0,.255.255h2.943a.255.255,0,0,0,.255-.255V8.468h2a.255.255,0,0,0,.254-.226l.3-2.631a.255.255,0,0,0-.254-.285h-2.3V3.677c0-.5.268-.749.8-.749h1.5a.255.255,0,0,0,.255-.255V.257A.255.255,0,0,0,84.448,0H82.376l-.095,0a3.969,3.969,0,0,0-2.6.978A2.722,2.722,0,0,0,78.781,3.4V5.326H76.958a.255.255,0,0,0-.255.255v2.6A.255.255,0,0,0,76.958,8.435Z" transform="translate(1354.297 4826)"/></g></svg>