<svg xmlns="http://www.w3.org/2000/svg" xmlns:xlink="http://www.w3.org/1999/xlink" width="566" height="566" viewBox="0 0 566 566"><defs><style>.a{fill:#fff;}.b{clip-path:url(#c);}.c,.e{fill:#ea2f2f;}.c{mix-blend-mode:multiply;isolation:isolate;}.d{fill:#3350ae;}.f{fill:#4db2ff;}.g{filter:url(#a);}</style><filter id="a" x="0" y="0" width="566" height="566" filterUnits="userSpaceOnUse"><feOffset dy="8" input="SourceAlpha"/><feGaussianBlur stdDeviation="40" result="b"/><feFlood flood-color="#3350ad" flood-opacity="0.122"/><feComposite operator="in" in2="b"/><feComposite in="SourceGraphic"/></filter><clipPath id="c"><rect class="a" width="278" height="278" rx="16"/></clipPath></defs><g transform="translate(120 112)"><g class="g" transform="matrix(1, 0, 0, 1, -120, -112)"><rect class="a" width="326" height="326" rx="16" transform="translate(120 112)"/></g><g class="b" transform="translate(24 24)"><g transform="translate(54.537 54.537)"><g transform="translate(0 0)"><path class="c" d="M276.9.528A84.463,84.463,0,1,0,361.36,84.991,84.464,84.464,0,0,0,276.9.528Z" transform="translate(-192.433 -0.528)"/><path class="a" d="M242.522,113.93a44.772,44.772,0,1,1,31.657,13.112A44.478,44.478,0,0,1,242.522,113.93Z" transform="translate(-189.715 2.19)"/><path class="d" d="M276.353,30.971c-42.264,0-76.524,52.728-76.524,52.728s34.26,50.836,76.524,50.836S352.877,83.7,352.877,83.7,318.618,30.971,276.353,30.971Zm42.933,64.541c-.233.221-.468.439-.707.657-10.335,9.484-26.049,20.79-42.225,20.79-15.973,0-31.5-11.049-41.706-20.315-.415-.377-.824-.753-1.227-1.131a147.655,147.655,0,0,1-11.484-12.019,152.012,152.012,0,0,1,11.111-12.159q.892-.874,1.815-1.743c10.192-9.6,25.661-21.044,41.491-21.044s31.3,11.446,41.491,21.044q.923.868,1.815,1.743a152.049,152.049,0,0,1,11.112,12.159A146.783,146.783,0,0,1,319.285,95.512Z" transform="translate(-191.889 1.71)"/><path class="e" d="M294.989,72.543a19.5,19.5,0,0,1-2.553,9.323,32.072,32.072,0,0,1-3.125,4.685q-.209.263-.422.522a55.335,55.335,0,0,1-8.874,8.418,65.3,65.3,0,0,1-7.29,4.918s-10.02-5.488-16.666-13.754a32.11,32.11,0,0,1-3.154-4.667,19.525,19.525,0,0,1-2.609-9.307,11.854,11.854,0,0,1,22.329-5.589,11.854,11.854,0,0,1,22.363,5.45Z" transform="translate(-188.18 3.897)"/><path class="f" d="M317.384,70.855q-.89-.874-1.815-1.743c-10.192-9.6-25.661-21.044-41.491-21.044s-31.3,11.446-41.491,21.044q-.923.868-1.815,1.743a44.8,44.8,0,0,1,86.613,0Z" transform="translate(-189.615 2.19)"/><path class="f" d="M316.985,91.093a44.8,44.8,0,0,1-85.865,0c.4.379.812.755,1.227,1.132,10.21,9.267,25.733,20.315,41.706,20.315,16.177,0,31.891-11.305,42.225-20.79C316.517,91.532,316.752,91.314,316.985,91.093Z" transform="translate(-189.589 6.129)"/><path class="a" d="M280.844,65.38a1.774,1.774,0,0,0-.684,1.538,3.628,3.628,0,0,0,.5,1.647,6.692,6.692,0,0,0,2.588,2.622c1.536.83,3.9.735,4.174-1.381,0-.034.007-.068.011-.1a3.213,3.213,0,0,0-.916-2.457,9.332,9.332,0,0,0-2.462-1.892A3.229,3.229,0,0,0,280.844,65.38Z" transform="translate(-185.985 4.207)"/></g><g transform="translate(15.074 115.492)"><path class="a" d="M214.564,109.749l-6.314,6.84-1.774-1.638,6.315-6.839Z" transform="translate(-206.475 -108.112)"/><path class="a" d="M215.269,119.936l3.013,2.487-1.305,1.582-6.145-5.07,8.017-2.791-2.819-2.326,1.305-1.581,5.929,4.892Z" transform="translate(-206.155 -107.809)"/><path class="a" d="M223.185,126.515l-2.731-1.983-1.426.9-2.065-1.5,8.352-5.432,2.134,1.549-2.63,9.582-2.089-1.515Zm.561-1.867.923-3.052-2.592,1.84Z" transform="translate(-205.704 -107.349)"/><path class="a" d="M230.46,132.938a5.739,5.739,0,0,1-2.015-.73,5.053,5.053,0,0,1-2.3-3.1,4.887,4.887,0,0,1,.619-3.619,4.989,4.989,0,0,1,3.024-2.148,4.938,4.938,0,0,1,3.749.652,5.774,5.774,0,0,1,1.586,1.564L233.583,128a2.587,2.587,0,0,0-1.237-1.986,2.355,2.355,0,0,0-1.743-.376,2.6,2.6,0,0,0-1.706,1.184,2.562,2.562,0,0,0-.331,1.935,2.6,2.6,0,0,0,1.119,1.467,2.737,2.737,0,0,0,2.3.3Z" transform="translate(-205.037 -107.002)"/><path class="a" d="M236.281,129.825l3.091,1.618,1.611-3.08,2.152,1.126-4.315,8.249-2.151-1.125,1.747-3.34-3.092-1.618L233.575,135l-2.138-1.12,4.314-8.249,2.14,1.119Z" transform="translate(-204.64 -106.825)"/><path class="a" d="M248.9,140.455a5.568,5.568,0,0,1-6.859-2.619,4.871,4.871,0,0,1,2.484-6.507,5.569,5.569,0,0,1,6.859,2.618,4.871,4.871,0,0,1-2.484,6.508Zm-3.313-6.9A2.55,2.55,0,0,0,244.246,135a2.367,2.367,0,0,0,.073,1.881,2.641,2.641,0,0,0,1.5,1.362,2.527,2.527,0,0,0,3.347-1.411,2.509,2.509,0,0,0-.068-1.938,2.787,2.787,0,0,0-1.484-1.358A2.679,2.679,0,0,0,245.589,133.557Z" transform="translate(-203.894 -106.432)"/><path class="a" d="M255.025,133.946l.393,6.216,3.122-5.5,1.888.382.6,6.257,2.916-5.547,2.476.5-4.76,8.533-2.42-.49-.587-5.614-2.819,4.924-2.407-.487-.876-9.672Z" transform="translate(-203.088 -106.25)"/><path class="a" d="M270.883,143.745l-3.377-.111-.678,1.542-2.555-.084,3.879-9.19,2.638.086,3.2,9.424-2.583-.085Zm-.581-1.864-.948-3.049-1.119,2.981Z" transform="translate(-202.227 -106.069)"/><path class="a" d="M278.675,135.546l.579,6.377a2.7,2.7,0,0,1-.59,2.294,3.007,3.007,0,0,1-2.183,1.081,2.465,2.465,0,0,1-1.5-.284,3.346,3.346,0,0,1-1-.861L275.4,142.4a1.3,1.3,0,0,0,.4.705.846.846,0,0,0,.473.126.689.689,0,0,0,.4-.19,1.441,1.441,0,0,0,.166-.954l-.573-6.32Z" transform="translate(-201.513 -106.095)"/><path class="a" d="M284.934,143.992l-2.306-9.014,3.068-.784a5.187,5.187,0,0,1,3.9.327,4.546,4.546,0,0,1,2.1,2.962,4.3,4.3,0,0,1-.378,3.422,5.056,5.056,0,0,1-3.11,2.25Zm1.83-2.584.472-.121a2.781,2.781,0,0,0,1.808-1.154,2.536,2.536,0,0,0,.215-2.027,2.776,2.776,0,0,0-1.206-1.793,2.706,2.706,0,0,0-2.011-.091l-.567.145Z" transform="translate(-200.877 -106.212)"/><path class="a" d="M294.5,136.711l-4.851-3.346,2.7-1.017,2.539,1.756.686-2.97,2.742-1.032-1.546,5.753,1.573,4.178-2.271.856Z" transform="translate(-200.361 -106.495)"/><path class="a" d="M300.6,135.967a3.266,3.266,0,0,0,2.337-.058,1.219,1.219,0,0,0,.706-.69.834.834,0,0,0-.036-.631.73.73,0,0,0-.479-.392,3.37,3.37,0,0,0-1.295.074l-.651.092a3.059,3.059,0,0,1-1.534-.107,2.343,2.343,0,0,1-1.184-1.261,3.038,3.038,0,0,1-.193-2.395,3.285,3.285,0,0,1,1.78-1.818,6.562,6.562,0,0,1,2.921-.55l-.063,2.115a2.456,2.456,0,0,0-1.707.115,1.154,1.154,0,0,0-.6.593.686.686,0,0,0,0,.556.615.615,0,0,0,.292.324,1.523,1.523,0,0,0,.911.031l.764-.114a3.543,3.543,0,0,1,1.921.108,2.2,2.2,0,0,1,1.254,1.244,3.151,3.151,0,0,1,.209,2.5,3.6,3.6,0,0,1-2.077,2.034,4.964,4.964,0,0,1-1.784.507,6.5,6.5,0,0,1-1.591-.065Z" transform="translate(-199.739 -106.634)"/><path class="a" d="M307.524,127.5l3.535,6.337-2.108,1.177-3.535-6.338-1.732.966-1-1.792,5.569-3.108,1,1.792Z" transform="translate(-199.403 -106.889)"/><path class="a" d="M316.668,128.409l-2.837,1.831.32,1.653L312,133.278l-2.046-9.76,2.218-1.43,7.991,5.924-2.169,1.4Zm-1.538-1.2-2.514-1.966.778,3.085Z" transform="translate(-198.868 -107.085)"/><path class="a" d="M320.763,127.836l-5.648-7.4,1.918-1.465,6.993,1.823-3.454-4.525,1.918-1.464,5.648,7.4-1.918,1.464-6.992-1.823,3.453,4.524Z" transform="translate(-198.489 -107.62)"/><path class="a" d="M327.483,118.835a3.268,3.268,0,0,0,2.237-.677,1.227,1.227,0,0,0,.5-.854.832.832,0,0,0-.2-.6.726.726,0,0,0-.566-.249,3.357,3.357,0,0,0-1.228.414l-.6.263a3.062,3.062,0,0,1-1.508.306,2.345,2.345,0,0,1-1.478-.9,3.046,3.046,0,0,1-.823-2.258,3.281,3.281,0,0,1,1.231-2.226,6.56,6.56,0,0,1,2.67-1.309l.5,2.056a2.452,2.452,0,0,0-1.613.566,1.163,1.163,0,0,0-.421.73.7.7,0,0,0,.149.537.621.621,0,0,0,.368.234,1.537,1.537,0,0,0,.888-.211l.705-.315a3.553,3.553,0,0,1,1.881-.407,2.2,2.2,0,0,1,1.539.865,3.15,3.15,0,0,1,.867,2.349,3.61,3.61,0,0,1-1.46,2.516,4.992,4.992,0,0,1-1.586.962,6.444,6.444,0,0,1-1.55.362Z" transform="translate(-197.851 -107.918)"/></g><g transform="translate(23.584 16.016)"><path class="a" d="M218.983,48.167,214.4,39.916l1.863-1.49,4.573,2.7L219.292,36l1.885-1.508,6.9,6.395L226.194,42.4l-3.88-3.756,1.592,5.585-.751.6-5.024-2.84,2.726,4.679Z" transform="translate(-214.402 -14.047)"/><path class="a" d="M225.26,31.4l5.331,7.625-1.977,1.383-5.332-7.625Z" transform="translate(-213.749 -14.274)"/><path class="a" d="M232.468,29.3l-2.432,1.532.824,1.311,2.3-1.45,1.093,1.736-2.3,1.451.856,1.357,2.431-1.532,1.094,1.737-4.476,2.818-4.96-7.877,4.475-2.818Z" transform="translate(-213.483 -14.556)"/><path class="a" d="M236.516,24.612l3.076,5.617a2.7,2.7,0,0,1,.375,2.34,3.01,3.01,0,0,1-1.573,1.863,2.453,2.453,0,0,1-1.486.336,3.332,3.332,0,0,1-1.262-.39l.6-2.177a1.3,1.3,0,0,0,.649.488.855.855,0,0,0,.484-.074.7.7,0,0,0,.293-.336,1.443,1.443,0,0,0-.227-.94L234.4,25.771Z" transform="translate(-212.932 -14.773)"/><path class="a" d="M244.837,30.965l-3.354-8.686,2.252-.87,6.206,3.709L247.889,19.8l2.253-.87,3.355,8.686-2.253.87-6.206-3.709,2.051,5.313Z" transform="translate(-212.411 -15.191)"/><path class="a" d="M259.384,24.472l-3.287.773-.253,1.665-2.484.585,1.346-9.876,2.566-.6,5.538,8.255-2.511.592Zm-1.047-1.646-1.708-2.693-.3,3.166Z" transform="translate(-211.538 -15.332)"/><path class="a" d="M265.278,24.863l1.479-9.324,2.385-.026,1.937,4.948,1.943-4.989,2.414-.025,1.494,9.293-2.414.025-.74-5.351-2.19,5.384-.964.01-2.206-5.336-.739,5.368Z" transform="translate(-210.662 -15.447)"/><path class="a" d="M277.174,24.991l1.726-9.145,2.372.448,3.317,6.418,1.057-5.593,2.371.448-1.727,9.145-2.371-.449L280.6,19.845l-1.055,5.594Z" transform="translate(-209.788 -15.418)"/><path class="a" d="M292.193,18.931l-2.711,8.9-2.309-.7,2.711-8.9Z" transform="translate(-209.053 -15.243)"/><path class="a" d="M298.419,23.376l-2.686-1.026L295.18,23.8l2.542.972-.731,1.917-2.543-.972-.572,1.5,2.686,1.025-.732,1.917-4.941-1.887,3.322-8.7,4.941,1.886Z" transform="translate(-208.78 -15.144)"/><path class="a" d="M307.155,34.556a5.568,5.568,0,0,1-6.444-3.515,4.869,4.869,0,0,1,3.334-6.115,5.566,5.566,0,0,1,6.445,3.516,4.869,4.869,0,0,1-3.335,6.114ZM304.8,27.277a2.555,2.555,0,0,0-1.526,1.252,2.371,2.371,0,0,0-.179,1.873,2.639,2.639,0,0,0,1.3,1.551A2.531,2.531,0,0,0,307.9,31a2.514,2.514,0,0,0,.193-1.929,2.785,2.785,0,0,0-1.288-1.545A2.677,2.677,0,0,0,304.8,27.277Z" transform="translate(-208.074 -14.762)"/><path class="a" d="M313.45,33.552l4.6-1.516,2.471,1.676-5.535,1.575.589,6.317-2.587-1.754-.347-5.108-2.263,3.338-2-1.354,5.223-7.7,2,1.354Z" transform="translate(-207.494 -14.449)"/><path class="a" d="M322.566,45.672a5.566,5.566,0,0,1-5.739-4.575,4.87,4.87,0,0,1,4.34-5.444,5.566,5.566,0,0,1,5.739,4.574,4.87,4.87,0,0,1-4.34,5.445ZM321.5,38.1a2.553,2.553,0,0,0-1.719.967,2.368,2.368,0,0,0-.5,1.814,2.643,2.643,0,0,0,1.011,1.753,2.528,2.528,0,0,0,3.617-.328,2.507,2.507,0,0,0,.524-1.866,2.779,2.779,0,0,0-1-1.744A2.681,2.681,0,0,0,321.5,38.1Z" transform="translate(-206.876 -13.963)"/></g></g></g></g></svg>