<svg xmlns="http://www.w3.org/2000/svg" width="108.4" height="34" viewBox="0 0 108.4 34"><defs><style>.a{fill:#f74902;}</style></defs><path class="a" d="M563.8,307.449V282.574l5.05.041v2.553l-.018.741c.274-1.3,2.141-3.542,5.58-3.809v5.972c-2.507.185-5.269,1.009-5.361,5.313h0v14.085l-5.251-.021Z" transform="translate(-466.012 -273.984)"/><path class="a" d="M188.754,308.281c-6.312,0-11.454-5.786-11.454-12.89s5.141-12.891,11.454-12.891,11.454,5.786,11.454,12.891S195.066,308.281,188.754,308.281Zm.183-20.139c-3.549,0-6.44,3.253-6.44,7.248s2.891,7.248,6.44,7.248,6.44-3.254,6.44-7.248C195.359,291.4,192.486,288.142,188.936,288.142Z" transform="translate(-149.288 -274.302)"/><path class="a" d="M323.579,267.9a7.954,7.954,0,0,1-6.276-2.522l.037-.02-.128,2.072H312.4V239.472l5.233-5.572-.018,11.985.018-.039a8.547,8.547,0,0,1,6.074-2.424h.055c5.782,0,10.667,5.611,10.667,12.239a12.792,12.792,0,0,1-3.348,8.642,10.327,10.327,0,0,1-7.373,3.6Zm-.622-19.121a6.323,6.323,0,0,0-5.288,2.952l-.055.078v7.684l.055.078a6.323,6.323,0,0,0,5.288,2.952,6.887,6.887,0,0,0,0-13.745Z" transform="translate(-260.059 -233.9)"/><path class="a" d="M445.45,308.275c-4.739,0-8.05-3.171-8.05-7.7,0-5.127,3.549-7.825,10.246-7.825h4.83v-.927a4.473,4.473,0,0,0-4.666-4.386,6.485,6.485,0,0,0-4.94,1.894l-2.836-3.192a9.354,9.354,0,0,1,1.079-1.071,10.59,10.59,0,0,1,6.916-2.368c5.8,0,9.532,3.583,9.532,9.122v16.165h-4.995V305.6l-.494.556C450.317,308.11,448.3,308.275,445.45,308.275Zm2.324-11.3c-3.33,0-5.013,1.153-5.013,3.439,0,1.977,1.519,3.253,3.842,3.253,3.568,0,5.873-2.1,5.873-5.354V296.97Z" transform="translate(-362.738 -274.46)"/><rect class="a" width="5.123" height="24.875" transform="translate(0.329 8.631)"/><path class="a" d="M24.554,243.566a3.258,3.258,0,0,1,0-6.466,3.256,3.256,0,0,1,0,6.466Z" transform="translate(-21.7 -236.441)"/><g transform="translate(7.319 8.198)"><path class="a" d="M64.792,300.786a10.373,10.373,0,0,0,7.264,2.553c3.44,0,4.995-1.153,4.995-2.862,0-1.791-1.519-2.574-5.69-2.986-5.471-.556-9.112-2.306-9.112-7.537,0-4.51,3.879-7.454,9.24-7.454a13.972,13.972,0,0,1,9.569,3.809c.037.021.055.062.091.082l-3.019,3.5a10.24,10.24,0,0,0-6.861-2.43c-2.781,0-4.3.927-4.3,2.306,0,1.483,1.226,2.2,4.94,2.615,5.727.638,9.862,2.718,9.862,8.01,0,5.024-4.172,7.907-9.77,7.907a13.982,13.982,0,0,1-10.228-3.871c-.037-.021-.055-.062-.073-.082Z" transform="translate(-61.7 -282.5)"/></g></svg>