<svg xmlns="http://www.w3.org/2000/svg" width="92" height="92" viewBox="0 0 92 92"><defs><style>.a{fill:#eaedf7;}.b{fill:#0b2156;fill-rule:evenodd;}</style></defs><circle class="a" cx="35" cy="35" r="35"/><path class="b" d="M1442.092,766.867l-23.487,12.809a7.227,7.227,0,0,1-6.925,0l-23.487-12.809v22.969a3.288,3.288,0,0,0,3.286,3.286h47.326a3.288,3.288,0,0,0,3.286-3.286Zm-25.374-15.993a3.282,3.282,0,0,0-3.15,0l-23.229,12.67,23.229,12.67a3.282,3.282,0,0,0,3.15,0l23.229-12.67Zm-5.037-3.463a7.227,7.227,0,0,1,6.925,0l26.4,14.4a1.971,1.971,0,0,1,1.028,1.73v26.292a7.229,7.229,0,0,1-7.23,7.23H1391.48a7.229,7.229,0,0,1-7.23-7.23V763.544a1.97,1.97,0,0,1,1.028-1.73Z" transform="translate(-1354.036 -705.066)"/></svg>