<svg xmlns="http://www.w3.org/2000/svg" width="91.5" height="92" viewBox="0 0 91.5 92"><defs><style>.a{fill:#eaedf7;}.b{fill:#0b2156;fill-rule:evenodd;}</style></defs><g transform="translate(-0.5)"><circle class="a" cx="35" cy="35" r="35" transform="translate(0.5 0)"/><path class="b" d="M972.947,431.186a9.965,9.965,0,1,1,9.965,9.965A9.965,9.965,0,0,1,972.947,431.186Zm9.965-5.979a5.979,5.979,0,1,0,5.979,5.979A5.978,5.978,0,0,0,982.912,425.207Zm-29,2.213a36.756,36.756,0,0,1,58,0,6.012,6.012,0,0,1,0,7.531,36.756,36.756,0,0,1-58,0A6.012,6.012,0,0,1,953.913,427.421Zm29-10.185A32.9,32.9,0,0,0,957.036,429.9a2.02,2.02,0,0,0,0,2.572,32.767,32.767,0,0,0,51.752,0,2.02,2.02,0,0,0,0-2.572A32.9,32.9,0,0,0,982.912,417.236Z" transform="translate(-921.317 -357.122)"/><path class="b" d="M1574.494,894.687a1.489,1.489,0,0,1,0,2.106l-21.851,21.85a1.489,1.489,0,1,1-2.105-2.106l21.85-21.851A1.488,1.488,0,0,1,1574.494,894.687Zm-9.932,0a1.488,1.488,0,0,1,0,2.106l-21.85,21.85a1.488,1.488,0,0,1-2.106,0l-11.919-11.918a1.489,1.489,0,0,1,2.106-2.106l10.865,10.864,2.858-2.858-5.9-5.9a1.489,1.489,0,0,1,2.106-2.106l5.9,5.9,15.832-15.83A1.488,1.488,0,0,1,1564.562,894.687Z" transform="translate(-1482.93 -866.277)"/></g></svg>