<svg xmlns="http://www.w3.org/2000/svg" width="108" height="108" viewBox="0 0 108 108"><defs><style>.a{fill:#eaedf7;}.b{fill:#0b2156;fill-rule:evenodd;}</style></defs><circle class="a" cx="43" cy="43" r="43"/><g transform="translate(47.758 27.104)"><path class="b" d="M1261.159,1085.413a7.744,7.744,0,0,0-7.745,7.746,9.889,9.889,0,0,0,1.325,3.914,44,44,0,0,0,3.353,5.322c1.088,1.515,2.179,2.9,3.067,3.986.889-1.084,1.979-2.471,3.067-3.986a43.56,43.56,0,0,0,3.35-5.322,9.915,9.915,0,0,0,1.329-3.914A7.744,7.744,0,0,0,1261.159,1085.413Zm-1.958,26.641.027.027.011.014a2.581,2.581,0,0,0,3.842,0l0,0,.007-.01.027-.027.093-.107c.08-.089.2-.224.345-.393.293-.337.706-.823,1.2-1.425.995-1.2,2.323-2.861,3.659-4.72a48.857,48.857,0,0,0,3.749-5.976,14.57,14.57,0,0,0,1.9-6.275,12.909,12.909,0,1,0-25.818,0,14.524,14.524,0,0,0,1.9,6.275,48.8,48.8,0,0,0,3.749,5.976c1.336,1.859,2.664,3.522,3.659,4.72.5.6.912,1.087,1.2,1.425l.344.393Z" transform="translate(-1231.038 -1080.25)"/><path class="b" d="M1273.371,1092.25a2.582,2.582,0,0,0,0,5.164H1292.3a6.024,6.024,0,1,1,0,12.048h-37.866a11.188,11.188,0,0,0,0,22.376h18.933a2.582,2.582,0,1,0,0-5.164h-18.933a6.024,6.024,0,1,1,0-12.048H1292.3a11.188,11.188,0,1,0,0-22.375Z" transform="translate(-1243.25 -1050.941)"/></g></svg>