<svg xmlns="http://www.w3.org/2000/svg" width="108" height="108" viewBox="0 0 108 108"><defs><style>.a{fill:#eaedf7;}.b{fill:#0b2156;fill-rule:evenodd;}</style></defs><g transform="translate(0 0)"><circle class="a" cx="43" cy="43" r="43" transform="translate(0 0)"/><path class="b" d="M1450.471,542.533h-10.6a4.076,4.076,0,1,0,0,8.153h10.6Zm-60.329-15.49v39.133a4.078,4.078,0,0,0,4.076,4.076h52.177a4.078,4.078,0,0,0,4.076-4.076v-10.6h-10.6a8.968,8.968,0,0,1,0-17.936h10.6v-10.6a4.078,4.078,0,0,0-4.076-4.076h-52.177A4.078,4.078,0,0,0,1390.142,527.043Zm16.351-8.968,29.076-7.7a4.076,4.076,0,0,1,5.12,3.939v3.757Zm27.823-12.425a8.968,8.968,0,0,1,11.263,8.668v3.757h.815a8.967,8.967,0,0,1,8.968,8.968v39.133a8.967,8.967,0,0,1-8.968,8.968h-52.177a8.967,8.967,0,0,1-8.968-8.968V525.543a8.968,8.968,0,0,1,6.672-8.671Z" transform="translate(-1347.363 -467.144)"/></g></svg>