<svg xmlns="http://www.w3.org/2000/svg" xmlns:xlink="http://www.w3.org/1999/xlink" width="354" height="472" viewBox="0 0 354 472"><defs><style>.a{fill:#fff;}.b,.c{fill:#111;}.b{font-size:24px;font-family:GothamRounded-Bold, Gotham Rounded;font-weight:700;}.c{font-size:14px;font-family:GothamRounded-Book, Gotham Rounded;}.d{fill:#eaedf7;}.e{fill:#0b2156;fill-rule:evenodd;}.f{filter:url(#a);}</style><filter id="a" x="0" y="0" width="354" height="472" filterUnits="userSpaceOnUse"><feOffset dy="4" input="SourceAlpha"/><feGaussianBlur stdDeviation="16" result="b"/><feFlood flood-opacity="0.078"/><feComposite operator="in" in2="b"/><feComposite in="SourceGraphic"/></filter></defs><g transform="translate(47.624 44)"><g class="f" transform="matrix(1, 0, 0, 1, -47.62, -44)"><rect class="a" width="258" height="376" rx="16" transform="translate(48 44)"/></g><text class="b" transform="translate(124.376 195)"><tspan x="-40.272" y="0">Krok 4</tspan></text><text class="c" transform="translate(22.376 225)"><tspan x="-93.387" y="11">W lodówce umieść kopertę</tspan><tspan x="-91.035" y="37">z aktualnymi informacjami</tspan><tspan x="-83.055" y="63">na temat stanu zdrowia. </tspan></text><g transform="translate(75.376 32)"><circle class="d" cx="43" cy="43" r="43"/><path class="e" d="M1452.152,770.4l-27.571,15.037a8.484,8.484,0,0,1-8.129,0L1388.88,770.4v26.963a3.859,3.859,0,0,0,3.858,3.858h55.556a3.859,3.859,0,0,0,3.858-3.858Zm-29.787-18.775a3.853,3.853,0,0,0-3.7,0L1391.4,766.5l27.269,14.874a3.853,3.853,0,0,0,3.7,0l27.269-14.874Zm-5.913-4.065a8.484,8.484,0,0,1,8.129,0l30.995,16.907a2.313,2.313,0,0,1,1.207,2.031v30.865a8.487,8.487,0,0,1-8.488,8.488h-55.556a8.487,8.487,0,0,1-8.488-8.488V766.5a2.313,2.313,0,0,1,1.207-2.031Z" transform="translate(-1348.782 -697.856)"/></g></g></svg>