<svg xmlns="http://www.w3.org/2000/svg" width="108" height="108" viewBox="0 0 108 108"><defs><style>.a{fill:#eaedf7;}.b{fill:#0b2156;fill-rule:evenodd;}</style></defs><g transform="translate(0.02 0.039)"><circle class="a" cx="43" cy="43" r="43" transform="translate(-0.02 -0.039)"/><path class="b" d="M976.488,434.306a11.7,11.7,0,1,1,11.7,11.7A11.7,11.7,0,0,1,976.488,434.306Zm11.7-7.018a7.019,7.019,0,1,0,7.019,7.018A7.017,7.017,0,0,0,988.185,427.287Zm-34.042,2.6a43.148,43.148,0,0,1,68.083,0,7.057,7.057,0,0,1,0,8.84,43.148,43.148,0,0,1-68.083,0A7.057,7.057,0,0,1,954.144,429.885Zm34.042-11.957A38.624,38.624,0,0,0,957.809,432.8a2.372,2.372,0,0,0,0,3.02,38.466,38.466,0,0,0,60.752,0,2.372,2.372,0,0,0,0-3.02A38.624,38.624,0,0,0,988.185,417.929Z" transform="translate(-915.898 -347.4)"/><path class="b" d="M1582.536,894.763a1.747,1.747,0,0,1,0,2.472l-25.651,25.651a1.748,1.748,0,0,1-2.472-2.472l25.65-25.651A1.747,1.747,0,0,1,1582.536,894.763Zm-11.66,0a1.747,1.747,0,0,1,0,2.472l-25.651,25.651a1.746,1.746,0,0,1-2.472,0l-13.991-13.991a1.748,1.748,0,0,1,2.472-2.472l12.755,12.753,3.355-3.356-6.923-6.926a1.748,1.748,0,0,1,2.472-2.472l6.926,6.923,18.585-18.583A1.747,1.747,0,0,1,1570.876,894.763Z" transform="translate(-1475.068 -861.451)"/></g></svg>